<mxfile host="Electron" modified="2024-01-05T12:46:36.264Z" agent="Mozilla/5.0 (Windows NT 10.0; Win64; x64) AppleWebKit/537.36 (KHTML, like Gecko) draw.io/22.0.3 Chrome/114.0.5735.289 Electron/25.8.4 Safari/537.36" etag="XmdNPI0Vb5SCeIX_3Mrg" version="22.0.3" type="device">
  <diagram name="Page-1" id="8IdA9oi9o0gF0HwmhEDl">
    <mxGraphModel dx="674" dy="543" grid="1" gridSize="10" guides="1" tooltips="1" connect="1" arrows="1" fold="1" page="1" pageScale="1" pageWidth="827" pageHeight="1169" math="0" shadow="0">
      <root>
        <mxCell id="0" />
        <mxCell id="1" parent="0" />
        <mxCell id="_okFRDRAouHStN6_lzYq-1" value="" style="rounded=0;whiteSpace=wrap;html=1;" parent="1" vertex="1">
          <mxGeometry x="280" y="280" width="400" height="70" as="geometry" />
        </mxCell>
        <mxCell id="_okFRDRAouHStN6_lzYq-2" value="&lt;font style=&quot;font-size: 14px;&quot;&gt;Upload&lt;/font&gt;" style="rounded=0;whiteSpace=wrap;html=1;" parent="1" vertex="1">
          <mxGeometry x="290" y="290" width="110" height="50" as="geometry" />
        </mxCell>
        <mxCell id="_okFRDRAouHStN6_lzYq-3" value="&lt;font style=&quot;font-size: 14px;&quot;&gt;Choose File&lt;/font&gt;" style="rounded=0;whiteSpace=wrap;html=1;" parent="1" vertex="1">
          <mxGeometry x="413" y="300" width="110" height="30" as="geometry" />
        </mxCell>
        <mxCell id="_okFRDRAouHStN6_lzYq-4" value="&lt;font style=&quot;font-size: 14px;&quot;&gt;sample_name.csv&lt;/font&gt;" style="text;html=1;strokeColor=none;fillColor=none;align=left;verticalAlign=middle;whiteSpace=wrap;rounded=0;" parent="1" vertex="1">
          <mxGeometry x="530" y="300" width="140" height="30" as="geometry" />
        </mxCell>
      </root>
    </mxGraphModel>
  </diagram>
</mxfile>
